{"title":"My Girlfriends Boyfriend [2010] BRRip x264 - ZooGLE","uid":6157249,"size":429100108,"categoryP":"video","categoryS":"movies","magnet":"?xt=urn:btih:ab792b9e040282a454a8e45a741133d8e8f47599&amp;dn=My+Girlfriends+Boyfriend+%5B2010%5D+BRRip+x264+-+ZooGLE&amp;tr=udp%3A%2F%2Ftracker.openbittorrent.com%3A80&amp;tr=udp%3A%2F%2Fopen.demonii.com%3A1337&amp;tr=udp%3A%2F%2Ftracker.coppersurfer.tk%3A6969&amp;tr=udp%3A%2F%2Fexodus.desync.com%3A6969","seeders":0,"leechers":1,"uploader":"iZooGLEi","files":3,"time":1297040251,"description":"Complete name                    : My Girlfriends Boyfriend [2010] BRRip x264 - ZooGLE\nFormat                           : MPEG-4\nFormat profile                   : Base Media\nCodec ID                         : isom\nFile size                        : 401 MiB\nDuration                         : 1h 24mn\nOverall bit rate                 : 664 Kbps\n\nVideo\nID                               : 1\nFormat                           : AVC\nFormat/Info                      : Advanced Video Codec\nFormat profile                   : &lt;a class=&quot;__cf_email__&quot; href=&quot;/cdn-cgi/l/email-protection&quot; data-cfemail=&quot;8fc7e6e8e7cfc3bba1be&quot;&gt;[email&amp;#160;protected]&lt;/a&gt;&lt;script cf-hash='f9e31' type=&quot;text/javascript&quot;&gt;\n/* &lt;![CDATA[ */!function(){try{var t=&quot;currentScript&quot;in document?document.currentScript:function(){for(var t=document.getElementsByTagName(&quot;script&quot;),e=t.length;e--;)if(t[e].getAttribute(&quot;cf-hash&quot;))return t[e]}();if(t&amp;&amp;t.previousSibling){var e,r,n,i,c=t.previousSibling,a=c.getAttribute(&quot;data-cfemail&quot;);if(a){for(e=&quot;&quot;,r=parseInt(a.substr(0,2),16),n=2;a.length-n;n+=2)i=parseInt(a.substr(n,2),16)^r,e+=String.fromCharCode(i);e=document.createTextNode(e),c.parentNode.replaceChild(e,c)}}}catch(u){}}();/* ]]&gt; */&lt;/script&gt;\nFormat settings, CABAC           : Yes\nFormat settings, ReFrames        : 4 frames\nFormat settings, GOP             : M=1, N=24\nCodec ID                         : avc1\nCodec ID/Info                    : Advanced Video Coding\nDuration                         : 1h 24mn\nBit rate mode                    : Variable\nBit rate                         : 564 Kbps\nMaximum bit rate                 : 1 777 Kbps\nWidth                            : 720 pixels\nHeight                           : 408 pixels\nDisplay aspect ratio             : 16:9\nFrame rate mode                  : Constant\nFrame rate                       : 23.976 fps\nColor space                      : YUV\nChroma subsampling               : 4:2:0\nBit depth                        : 8 bits\nScan type                        : Progressive\nBits/(Pixel*Frame)               : 0.080\nStream size                      : 340 MiB (85%)\n\nAudio\nID                               : 2\nFormat                           : AAC\nFormat/Info                      : Advanced Audio Codec\nFormat profile                   : LC\nCodec ID                         : 40\nDuration                         : 1h 24mn\nBit rate mode                    : Variable\nBit rate                         : 96.0 Kbps\nMaximum bit rate                 : 110 Kbps\nChannel(s)                       : 2 channels\nChannel positions                : Front: L R\nSampling rate                    : 48.0 KHz\nCompression mode                 : Lossy\nStream size                      : 57.9 MiB (14%)\n\nIMDB              5.4/10 (906 votes)\n\nComedy | Romance\n\nJesse meets Ethan, someone she could finally fall in love with, but then she meets Troy, and now she has a dilemma.\n\nDirector: Daryn Tufts\n\nWriter: Daryn Tufts\n \nStars: Alyssa Milano, Beau Bridges and Christopher Gorham\n\nSubtitles None\n\nSCREENSHOTS\n &lt;a href=&quot;\nhttp://img189.imageshack.us/img189/1863/boyfriend1.png&quot; rel=&quot;nofollow&quot; target=&quot;_NEW&quot;&gt;\nhttp://img189.imageshack.us/img189/1863/boyfriend1.png&lt;/a&gt;\n &lt;a href=&quot;\nhttp://img195.imageshack.us/img195/3276/boyfriend2.png&quot; rel=&quot;nofollow&quot; target=&quot;_NEW&quot;&gt;\nhttp://img195.imageshack.us/img195/3276/boyfriend2.png&lt;/a&gt;\n &lt;a href=&quot;\nhttp://img585.imageshack.us/img585/5036/boyfriend3.png&quot; rel=&quot;nofollow&quot; target=&quot;_NEW&quot;&gt;\nhttp://img585.imageshack.us/img585/5036/boyfriend3.png&lt;/a&gt;\n &lt;a href=&quot;\nhttp://img684.imageshack.us/img684/9812/boyfriend4.png&quot; rel=&quot;nofollow&quot; target=&quot;_NEW&quot;&gt;\nhttp://img684.imageshack.us/img684/9812/boyfriend4.png&lt;/a&gt;\n\n\nTHERE IS A SAMPLE SO PLEASE CHECK THAT FIRST","torrent":{"xt":"urn:btih:ab792b9e040282a454a8e45a741133d8e8f47599","amp;dn":"My+Girlfriends+Boyfriend+%5B2010%5D+BRRip+x264+-+ZooGLE","amp;tr":["udp%3A%2F%2Ftracker.openbittorrent.com%3A80","udp%3A%2F%2Fopen.demonii.com%3A1337","udp%3A%2F%2Ftracker.coppersurfer.tk%3A6969","udp%3A%2F%2Fexodus.desync.com%3A6969"],"infoHash":"ab792b9e040282a454a8e45a741133d8e8f47599","infoHashBuffer":{"type":"Buffer","data":[171,121,43,158,4,2,130,164,84,168,228,90,116,17,51,216,232,244,117,153]},"announce":[],"urlList":[]}}